# xmcd
#
# Track frame offsets: 
#        150
#        13335
#        28254
#        42944
#        56429
#        68153
#        82508
#        95549
#        107857
#        121707
#        135127
#        148750
#        162242
#        176284
#        188247
#        201747
#        215853
#        228363
#        242888
#        257146
#        269426
#        282961
#        295935
#        307714
#        320267
#        333933
#
# Disc length: 4610 seconds
#
# Revision: 0
# Processed by: cddbd v1.5.2PL0 Copyright (c) Steve Scherf et al.
# Submitted via: ExactAudioCopy v0.99pb5
#
DISCID=7a12001a
DTITLE=The Carter Family - Wildwood flower
DYEAR=1900
DGENRE=Country
TTITLE0=Keep on the Sunny Side
TTITLE1=Little Darling, Pal of Mine
TTITLE2=Wildwood Flower
TTITLE3=John Hardy Was a desperate Little Man
TTITLE4=Jimmie Brown the Newsboy
TTITLE5=Sweet Fern
TTITLE6=Little Log Cabin by the Sea
TTITLE7=Oh, Take Me Back
TTITLE8=I'm thinking Tonight of My Blue Eyes
TTITLE9=Bury Me Under the Weeping Willow
TTITLE10=Carter's Blues
TTITLE11=My Dixie Darling
TTITLE12=Foggy Mountain Top
TTITLE13=River of Jordan
TTITLE14=Wabash Cannonball
TTITLE15=You are My Flower
TTITLE16=Anchored in Love
TTITLE17=My Clinch Mountain Home
TTITLE18=Can the Circle Be Unbroken
TTITLE19=Lonesome Valey
TTITLE20=Lonsome Pine Special
TTITLE21=Lulu Walls
TTITLE22=I Never Will Mary
TTITLE23=Worried Man Blues
TTITLE24=The CannonBall
TTITLE25=Hidden Track...
EXTD=
EXTT0=
EXTT1=
EXTT2=
EXTT3=
EXTT4=
EXTT5=
EXTT6=
EXTT7=
EXTT8=
EXTT9=
EXTT10=
EXTT11=
EXTT12=
EXTT13=
EXTT14=
EXTT15=
EXTT16=
EXTT17=
EXTT18=
EXTT19=
EXTT20=
EXTT21=
EXTT22=
EXTT23=
EXTT24=
EXTT25=
PLAYORDER=
